<mxfile host="drawio-plugin" modified="2021-05-24T18:17:18.539Z" agent="5.0 (X11; Linux x86_64) AppleWebKit/537.36 (KHTML, like Gecko) Chrome/87.0.4280.141 Safari/537.36" etag="n6KMDXneqy4xpnQfwDLk" version="13.7.9" type="embed" pages="3"><diagram id="HG-xDJjMGS4tW4KA2N-7" name="Tabela"><mxGraphModel dx="1028" dy="754" grid="0" gridSize="10" guides="1" tooltips="1" connect="1" arrows="1" fold="1" page="0" pageScale="1" pageWidth="827" pageHeight="1169" math="0" shadow="0"><root><mxCell id="0"/><mxCell id="1" parent="0"/><mxCell id="41" value="&lt;h1&gt;Tabela em um Banco de Dados SQL&lt;/h1&gt;" style="text;html=1;fillColor=none;spacing=5;spacingTop=-20;whiteSpace=wrap;overflow=hidden;rounded=0;strokeColor=#000000;" parent="1" vertex="1"><mxGeometry x="40" y="130" width="760" height="390" as="geometry"/></mxCell><mxCell id="35" style="rounded=0;orthogonalLoop=1;jettySize=auto;html=1;entryX=0;entryY=0.25;entryDx=0;entryDy=0;fontSize=25;" parent="1" source="29" target="15" edge="1"><mxGeometry relative="1" as="geometry"/></mxCell><mxCell id="29" value="CREATE" style="whiteSpace=wrap;html=1;rounded=1;shadow=1;strokeWidth=1;fontSize=16;align=center;fillColor=#f5f5f5;strokeColor=#666666;" parent="1" vertex="1"><mxGeometry x="60" y="215" width="125" height="40" as="geometry"/></mxCell><mxCell id="36" style="edgeStyle=none;rounded=0;orthogonalLoop=1;jettySize=auto;html=1;entryX=0;entryY=0.5;entryDx=0;entryDy=0;fontSize=25;" parent="1" source="30" target="16" edge="1"><mxGeometry relative="1" as="geometry"/></mxCell><mxCell id="30" value="ALTER" style="whiteSpace=wrap;html=1;rounded=1;shadow=1;strokeWidth=1;fontSize=16;align=center;fillColor=#f5f5f5;strokeColor=#666666;" parent="1" vertex="1"><mxGeometry x="60" y="305" width="125" height="40" as="geometry"/></mxCell><mxCell id="37" style="edgeStyle=none;rounded=0;orthogonalLoop=1;jettySize=auto;html=1;entryX=0.005;entryY=0.3;entryDx=0;entryDy=0;entryPerimeter=0;fontSize=25;" parent="1" source="31" target="19" edge="1"><mxGeometry relative="1" as="geometry"/></mxCell><mxCell id="31" value="DROP" style="whiteSpace=wrap;html=1;rounded=1;shadow=1;strokeWidth=1;fontSize=16;align=center;fillColor=#f5f5f5;strokeColor=#666666;" parent="1" vertex="1"><mxGeometry x="60" y="385" width="125" height="40" as="geometry"/></mxCell><mxCell id="38" style="edgeStyle=none;rounded=0;orthogonalLoop=1;jettySize=auto;html=1;entryX=0.991;entryY=0.356;entryDx=0;entryDy=0;entryPerimeter=0;fontSize=25;" parent="1" source="32" target="15" edge="1"><mxGeometry relative="1" as="geometry"/></mxCell><mxCell id="32" value="INSERT" style="whiteSpace=wrap;html=1;rounded=1;shadow=1;strokeWidth=1;fontSize=16;align=center;fillColor=#f5f5f5;strokeColor=#666666;" parent="1" vertex="1"><mxGeometry x="640" y="215" width="125" height="40" as="geometry"/></mxCell><mxCell id="39" style="edgeStyle=none;rounded=0;orthogonalLoop=1;jettySize=auto;html=1;fontSize=25;" parent="1" source="33" target="16" edge="1"><mxGeometry relative="1" as="geometry"/></mxCell><mxCell id="33" value="UPDATE" style="whiteSpace=wrap;html=1;rounded=1;shadow=1;strokeWidth=1;fontSize=16;align=center;fillColor=#f5f5f5;strokeColor=#666666;" parent="1" vertex="1"><mxGeometry x="640" y="310" width="125" height="40" as="geometry"/></mxCell><mxCell id="40" style="edgeStyle=none;rounded=0;orthogonalLoop=1;jettySize=auto;html=1;entryX=1;entryY=-0.1;entryDx=0;entryDy=0;entryPerimeter=0;fontSize=25;" parent="1" source="34" target="19" edge="1"><mxGeometry relative="1" as="geometry"/></mxCell><mxCell id="34" value="DELETE" style="whiteSpace=wrap;html=1;rounded=1;shadow=1;strokeWidth=1;fontSize=16;align=center;fillColor=#f5f5f5;strokeColor=#666666;" parent="1" vertex="1"><mxGeometry x="640" y="385" width="125" height="40" as="geometry"/></mxCell><mxCell id="15" value="Tabela A" style="shape=table;startSize=30;container=1;collapsible=1;childLayout=tableLayout;fixedRows=1;rowLines=0;fontStyle=1;align=center;resizeLast=1;fontSize=12;" parent="1" vertex="1"><mxGeometry x="310" y="285" width="220" height="90" as="geometry"/></mxCell><mxCell id="16" value="" style="shape=partialRectangle;collapsible=0;dropTarget=0;pointerEvents=0;fillColor=none;top=0;left=0;bottom=1;right=0;points=[[0,0.5],[1,0.5]];portConstraint=eastwest;fontSize=12;" parent="15" vertex="1"><mxGeometry y="30" width="220" height="30" as="geometry"/></mxCell><mxCell id="17" value="PK" style="shape=partialRectangle;connectable=0;fillColor=none;top=0;left=0;bottom=0;right=0;fontStyle=1;overflow=hidden;fontSize=12;" parent="16" vertex="1"><mxGeometry width="30" height="30" as="geometry"/></mxCell><mxCell id="18" value="id int not null" style="shape=partialRectangle;connectable=0;fillColor=none;top=0;left=0;bottom=0;right=0;align=left;spacingLeft=6;fontStyle=5;overflow=hidden;fontSize=12;" parent="16" vertex="1"><mxGeometry x="30" width="190" height="30" as="geometry"/></mxCell><mxCell id="19" value="" style="shape=partialRectangle;collapsible=0;dropTarget=0;pointerEvents=0;fillColor=none;top=0;left=0;bottom=0;right=0;points=[[0,0.5],[1,0.5]];portConstraint=eastwest;fontSize=12;" parent="15" vertex="1"><mxGeometry y="60" width="220" height="30" as="geometry"/></mxCell><mxCell id="20" value="" style="shape=partialRectangle;connectable=0;fillColor=none;top=0;left=0;bottom=0;right=0;editable=1;overflow=hidden;fontSize=12;" parent="19" vertex="1"><mxGeometry width="30" height="30" as="geometry"/></mxCell><mxCell id="21" value="fieldA varchar(50) not null" style="shape=partialRectangle;connectable=0;fillColor=none;top=0;left=0;bottom=0;right=0;align=left;spacingLeft=6;overflow=hidden;fontSize=12;" parent="19" vertex="1"><mxGeometry x="30" width="190" height="30" as="geometry"/></mxCell><mxCell id="43" style="edgeStyle=none;rounded=0;orthogonalLoop=1;jettySize=auto;html=1;fontSize=25;" parent="1" source="42" target="19" edge="1"><mxGeometry relative="1" as="geometry"/></mxCell><mxCell id="42" value="SELECT" style="whiteSpace=wrap;html=1;rounded=1;shadow=1;strokeWidth=1;fontSize=16;align=center;fillColor=#f5f5f5;strokeColor=#666666;" parent="1" vertex="1"><mxGeometry x="357.5" y="460" width="125" height="40" as="geometry"/></mxCell></root></mxGraphModel></diagram><diagram name="Select" id="_n_W98auBF9eRMgZdzvk"><mxGraphModel dx="1469" dy="1077" grid="0" gridSize="10" guides="1" tooltips="1" connect="1" arrows="1" fold="1" page="0" pageScale="1" pageWidth="827" pageHeight="1169" math="0" shadow="0"><root><mxCell id="fpt21rZaqPMI40TDleuf-0"/><mxCell id="fpt21rZaqPMI40TDleuf-1" parent="fpt21rZaqPMI40TDleuf-0"/><mxCell id="fpt21rZaqPMI40TDleuf-2" value="&lt;h1&gt;Estrutura de um Select&lt;/h1&gt;" style="text;html=1;fillColor=none;spacing=5;spacingTop=-20;whiteSpace=wrap;overflow=hidden;rounded=0;strokeColor=#000000;" parent="fpt21rZaqPMI40TDleuf-1" vertex="1"><mxGeometry x="60" y="130" width="870" height="1000" as="geometry"/></mxCell><mxCell id="fpt21rZaqPMI40TDleuf-10" value="SELECT" style="whiteSpace=wrap;html=1;rounded=1;shadow=1;strokeWidth=1;fontSize=16;align=center;fillColor=#f5f5f5;strokeColor=#666666;" parent="fpt21rZaqPMI40TDleuf-1" vertex="1"><mxGeometry x="90" y="220" width="125" height="40" as="geometry"/></mxCell><mxCell id="fpt21rZaqPMI40TDleuf-12" value="FROM" style="whiteSpace=wrap;html=1;rounded=1;shadow=1;strokeWidth=1;fontSize=16;align=center;fillColor=#f5f5f5;strokeColor=#666666;" parent="fpt21rZaqPMI40TDleuf-1" vertex="1"><mxGeometry x="357.5" y="220" width="125" height="40" as="geometry"/></mxCell><mxCell id="fpt21rZaqPMI40TDleuf-14" value="INNER JOIN" style="whiteSpace=wrap;html=1;rounded=1;shadow=1;strokeWidth=1;fontSize=16;align=center;fillColor=#f5f5f5;strokeColor=#666666;" parent="fpt21rZaqPMI40TDleuf-1" vertex="1"><mxGeometry x="357.5" y="280" width="125" height="40" as="geometry"/></mxCell><mxCell id="fpt21rZaqPMI40TDleuf-23" value="WHERE" style="whiteSpace=wrap;html=1;rounded=1;shadow=1;strokeWidth=1;fontSize=16;align=center;fillColor=#f5f5f5;strokeColor=#666666;" parent="fpt21rZaqPMI40TDleuf-1" vertex="1"><mxGeometry x="97.5" y="480" width="125" height="40" as="geometry"/></mxCell><mxCell id="fpt21rZaqPMI40TDleuf-24" value="&amp;lt;atributos | * &amp;gt;" style="whiteSpace=wrap;html=1;rounded=1;shadow=1;strokeWidth=1;fontSize=16;align=center;fillColor=#f5f5f5;strokeColor=#666666;" parent="fpt21rZaqPMI40TDleuf-1" vertex="1"><mxGeometry x="220" y="220" width="125" height="40" as="geometry"/></mxCell><mxCell id="fpt21rZaqPMI40TDleuf-25" value="&amp;lt;nome tabela&amp;gt;" style="whiteSpace=wrap;html=1;rounded=1;shadow=1;strokeWidth=1;fontSize=16;align=center;fillColor=#f5f5f5;strokeColor=#666666;" parent="fpt21rZaqPMI40TDleuf-1" vertex="1"><mxGeometry x="490" y="220" width="125" height="40" as="geometry"/></mxCell><mxCell id="fpt21rZaqPMI40TDleuf-26" value="&amp;lt;nome tabela&amp;gt;" style="whiteSpace=wrap;html=1;rounded=1;shadow=1;strokeWidth=1;fontSize=16;align=center;fillColor=#f5f5f5;strokeColor=#666666;" parent="fpt21rZaqPMI40TDleuf-1" vertex="1"><mxGeometry x="490" y="280" width="125" height="40" as="geometry"/></mxCell><mxCell id="fpt21rZaqPMI40TDleuf-27" value="&amp;lt;criterio&amp;gt;" style="whiteSpace=wrap;html=1;rounded=1;shadow=1;strokeWidth=1;fontSize=16;align=center;fillColor=#f5f5f5;strokeColor=#666666;" parent="fpt21rZaqPMI40TDleuf-1" vertex="1"><mxGeometry x="227.5" y="480" width="125" height="40" as="geometry"/></mxCell><mxCell id="fpt21rZaqPMI40TDleuf-28" value="AND" style="whiteSpace=wrap;html=1;rounded=1;shadow=1;strokeWidth=1;fontSize=16;align=center;fillColor=#f5f5f5;strokeColor=#666666;" parent="fpt21rZaqPMI40TDleuf-1" vertex="1"><mxGeometry x="365" y="480" width="125" height="40" as="geometry"/></mxCell><mxCell id="fpt21rZaqPMI40TDleuf-29" value="&amp;lt;criterio&amp;gt;" style="whiteSpace=wrap;html=1;rounded=1;shadow=1;strokeWidth=1;fontSize=16;align=center;fillColor=#f5f5f5;strokeColor=#666666;" parent="fpt21rZaqPMI40TDleuf-1" vertex="1"><mxGeometry x="502.5" y="480" width="125" height="40" as="geometry"/></mxCell><mxCell id="fpt21rZaqPMI40TDleuf-30" value="OR" style="whiteSpace=wrap;html=1;rounded=1;shadow=1;strokeWidth=1;fontSize=16;align=center;fillColor=#f5f5f5;strokeColor=#666666;" parent="fpt21rZaqPMI40TDleuf-1" vertex="1"><mxGeometry x="365" y="530" width="125" height="40" as="geometry"/></mxCell><mxCell id="fpt21rZaqPMI40TDleuf-31" value="&amp;lt;criterio&amp;gt;" style="whiteSpace=wrap;html=1;rounded=1;shadow=1;strokeWidth=1;fontSize=16;align=center;fillColor=#f5f5f5;strokeColor=#666666;" parent="fpt21rZaqPMI40TDleuf-1" vertex="1"><mxGeometry x="502.5" y="530" width="125" height="40" as="geometry"/></mxCell><mxCell id="fpt21rZaqPMI40TDleuf-32" value="ON" style="whiteSpace=wrap;html=1;rounded=1;shadow=1;strokeWidth=1;fontSize=16;align=center;fillColor=#f5f5f5;strokeColor=#666666;" parent="fpt21rZaqPMI40TDleuf-1" vertex="1"><mxGeometry x="490" y="330" width="125" height="40" as="geometry"/></mxCell><mxCell id="fpt21rZaqPMI40TDleuf-33" value="&amp;lt;criterio&amp;gt;" style="whiteSpace=wrap;html=1;rounded=1;shadow=1;strokeWidth=1;fontSize=16;align=center;fillColor=#f5f5f5;strokeColor=#666666;" parent="fpt21rZaqPMI40TDleuf-1" vertex="1"><mxGeometry x="620" y="330" width="125" height="40" as="geometry"/></mxCell><mxCell id="fpt21rZaqPMI40TDleuf-34" value="&amp;lt;outros joins&amp;gt;" style="whiteSpace=wrap;html=1;rounded=1;shadow=1;strokeWidth=1;fontSize=16;align=center;fillColor=#f5f5f5;strokeColor=#666666;" parent="fpt21rZaqPMI40TDleuf-1" vertex="1"><mxGeometry x="358.75" y="375" width="125" height="40" as="geometry"/></mxCell><mxCell id="fpt21rZaqPMI40TDleuf-35" value="&amp;lt;nome tabela&amp;gt;" style="whiteSpace=wrap;html=1;rounded=1;shadow=1;strokeWidth=1;fontSize=16;align=center;fillColor=#f5f5f5;strokeColor=#666666;" parent="fpt21rZaqPMI40TDleuf-1" vertex="1"><mxGeometry x="491.25" y="375" width="125" height="40" as="geometry"/></mxCell><mxCell id="fpt21rZaqPMI40TDleuf-36" value="ON" style="whiteSpace=wrap;html=1;rounded=1;shadow=1;strokeWidth=1;fontSize=16;align=center;fillColor=#f5f5f5;strokeColor=#666666;" parent="fpt21rZaqPMI40TDleuf-1" vertex="1"><mxGeometry x="491.25" y="425" width="125" height="40" as="geometry"/></mxCell><mxCell id="fpt21rZaqPMI40TDleuf-37" value="&amp;lt;criterio&amp;gt;" style="whiteSpace=wrap;html=1;rounded=1;shadow=1;strokeWidth=1;fontSize=16;align=center;fillColor=#f5f5f5;strokeColor=#666666;" parent="fpt21rZaqPMI40TDleuf-1" vertex="1"><mxGeometry x="621.25" y="425" width="125" height="40" as="geometry"/></mxCell><mxCell id="fpt21rZaqPMI40TDleuf-38" value="BETWEEN" style="whiteSpace=wrap;html=1;rounded=1;shadow=1;strokeWidth=1;fontSize=16;align=center;fillColor=#f5f5f5;strokeColor=#666666;" parent="fpt21rZaqPMI40TDleuf-1" vertex="1"><mxGeometry x="365" y="580" width="125" height="40" as="geometry"/></mxCell><mxCell id="fpt21rZaqPMI40TDleuf-39" value="&amp;lt;criterio&amp;gt;" style="whiteSpace=wrap;html=1;rounded=1;shadow=1;strokeWidth=1;fontSize=16;align=center;fillColor=#f5f5f5;strokeColor=#666666;" parent="fpt21rZaqPMI40TDleuf-1" vertex="1"><mxGeometry x="502.5" y="580" width="125" height="40" as="geometry"/></mxCell><mxCell id="fpt21rZaqPMI40TDleuf-40" value="AND" style="whiteSpace=wrap;html=1;rounded=1;shadow=1;strokeWidth=1;fontSize=16;align=center;fillColor=#f5f5f5;strokeColor=#666666;" parent="fpt21rZaqPMI40TDleuf-1" vertex="1"><mxGeometry x="630" y="580" width="125" height="40" as="geometry"/></mxCell><mxCell id="fpt21rZaqPMI40TDleuf-41" value="&amp;lt;criterio&amp;gt;" style="whiteSpace=wrap;html=1;rounded=1;shadow=1;strokeWidth=1;fontSize=16;align=center;fillColor=#f5f5f5;strokeColor=#666666;" parent="fpt21rZaqPMI40TDleuf-1" vertex="1"><mxGeometry x="767.5" y="580" width="125" height="40" as="geometry"/></mxCell><mxCell id="fpt21rZaqPMI40TDleuf-42" value="LIKE" style="whiteSpace=wrap;html=1;rounded=1;shadow=1;strokeWidth=1;fontSize=16;align=center;fillColor=#f5f5f5;strokeColor=#666666;" parent="fpt21rZaqPMI40TDleuf-1" vertex="1"><mxGeometry x="366.25" y="630" width="125" height="40" as="geometry"/></mxCell><mxCell id="fpt21rZaqPMI40TDleuf-43" value="&amp;lt;criterio&amp;gt;" style="whiteSpace=wrap;html=1;rounded=1;shadow=1;strokeWidth=1;fontSize=16;align=center;fillColor=#f5f5f5;strokeColor=#666666;" parent="fpt21rZaqPMI40TDleuf-1" vertex="1"><mxGeometry x="502.5" y="630" width="125" height="40" as="geometry"/></mxCell><mxCell id="fpt21rZaqPMI40TDleuf-44" value="GROUP BY" style="whiteSpace=wrap;html=1;rounded=1;shadow=1;strokeWidth=1;fontSize=16;align=center;fillColor=#f5f5f5;strokeColor=#666666;" parent="fpt21rZaqPMI40TDleuf-1" vertex="1"><mxGeometry x="102.5" y="750" width="125" height="40" as="geometry"/></mxCell><mxCell id="fpt21rZaqPMI40TDleuf-45" value="&amp;lt;atributos&amp;gt;" style="whiteSpace=wrap;html=1;rounded=1;shadow=1;strokeWidth=1;fontSize=16;align=center;fillColor=#f5f5f5;strokeColor=#666666;" parent="fpt21rZaqPMI40TDleuf-1" vertex="1"><mxGeometry x="232.5" y="750" width="125" height="40" as="geometry"/></mxCell><mxCell id="fpt21rZaqPMI40TDleuf-46" value="HAVING" style="whiteSpace=wrap;html=1;rounded=1;shadow=1;strokeWidth=1;fontSize=16;align=center;fillColor=#f5f5f5;strokeColor=#666666;" parent="fpt21rZaqPMI40TDleuf-1" vertex="1"><mxGeometry x="102.5" y="800" width="125" height="40" as="geometry"/></mxCell><mxCell id="fpt21rZaqPMI40TDleuf-48" value="&amp;lt;criterio&amp;gt;" style="whiteSpace=wrap;html=1;rounded=1;shadow=1;strokeWidth=1;fontSize=16;align=center;fillColor=#f5f5f5;strokeColor=#666666;" parent="fpt21rZaqPMI40TDleuf-1" vertex="1"><mxGeometry x="232.5" y="800" width="125" height="40" as="geometry"/></mxCell><mxCell id="fpt21rZaqPMI40TDleuf-49" value="AND" style="whiteSpace=wrap;html=1;rounded=1;shadow=1;strokeWidth=1;fontSize=16;align=center;fillColor=#f5f5f5;strokeColor=#666666;" parent="fpt21rZaqPMI40TDleuf-1" vertex="1"><mxGeometry x="370" y="800" width="125" height="40" as="geometry"/></mxCell><mxCell id="fpt21rZaqPMI40TDleuf-50" value="&amp;lt;criterio&amp;gt;" style="whiteSpace=wrap;html=1;rounded=1;shadow=1;strokeWidth=1;fontSize=16;align=center;fillColor=#f5f5f5;strokeColor=#666666;" parent="fpt21rZaqPMI40TDleuf-1" vertex="1"><mxGeometry x="507.5" y="800" width="125" height="40" as="geometry"/></mxCell><mxCell id="fpt21rZaqPMI40TDleuf-51" value="OR" style="whiteSpace=wrap;html=1;rounded=1;shadow=1;strokeWidth=1;fontSize=16;align=center;fillColor=#f5f5f5;strokeColor=#666666;" parent="fpt21rZaqPMI40TDleuf-1" vertex="1"><mxGeometry x="370" y="850" width="125" height="40" as="geometry"/></mxCell><mxCell id="fpt21rZaqPMI40TDleuf-52" value="&amp;lt;criterio&amp;gt;" style="whiteSpace=wrap;html=1;rounded=1;shadow=1;strokeWidth=1;fontSize=16;align=center;fillColor=#f5f5f5;strokeColor=#666666;" parent="fpt21rZaqPMI40TDleuf-1" vertex="1"><mxGeometry x="507.5" y="850" width="125" height="40" as="geometry"/></mxCell><mxCell id="fpt21rZaqPMI40TDleuf-53" value="BETWEEN" style="whiteSpace=wrap;html=1;rounded=1;shadow=1;strokeWidth=1;fontSize=16;align=center;fillColor=#f5f5f5;strokeColor=#666666;" parent="fpt21rZaqPMI40TDleuf-1" vertex="1"><mxGeometry x="370" y="900" width="125" height="40" as="geometry"/></mxCell><mxCell id="fpt21rZaqPMI40TDleuf-54" value="&amp;lt;criterio&amp;gt;" style="whiteSpace=wrap;html=1;rounded=1;shadow=1;strokeWidth=1;fontSize=16;align=center;fillColor=#f5f5f5;strokeColor=#666666;" parent="fpt21rZaqPMI40TDleuf-1" vertex="1"><mxGeometry x="507.5" y="900" width="125" height="40" as="geometry"/></mxCell><mxCell id="fpt21rZaqPMI40TDleuf-55" value="AND" style="whiteSpace=wrap;html=1;rounded=1;shadow=1;strokeWidth=1;fontSize=16;align=center;fillColor=#f5f5f5;strokeColor=#666666;" parent="fpt21rZaqPMI40TDleuf-1" vertex="1"><mxGeometry x="635" y="900" width="125" height="40" as="geometry"/></mxCell><mxCell id="fpt21rZaqPMI40TDleuf-56" value="&amp;lt;criterio&amp;gt;" style="whiteSpace=wrap;html=1;rounded=1;shadow=1;strokeWidth=1;fontSize=16;align=center;fillColor=#f5f5f5;strokeColor=#666666;" parent="fpt21rZaqPMI40TDleuf-1" vertex="1"><mxGeometry x="772.5" y="900" width="125" height="40" as="geometry"/></mxCell><mxCell id="fpt21rZaqPMI40TDleuf-57" value="LIKE" style="whiteSpace=wrap;html=1;rounded=1;shadow=1;strokeWidth=1;fontSize=16;align=center;fillColor=#f5f5f5;strokeColor=#666666;" parent="fpt21rZaqPMI40TDleuf-1" vertex="1"><mxGeometry x="371.25" y="950" width="125" height="40" as="geometry"/></mxCell><mxCell id="fpt21rZaqPMI40TDleuf-58" value="&amp;lt;criterio&amp;gt;" style="whiteSpace=wrap;html=1;rounded=1;shadow=1;strokeWidth=1;fontSize=16;align=center;fillColor=#f5f5f5;strokeColor=#666666;" parent="fpt21rZaqPMI40TDleuf-1" vertex="1"><mxGeometry x="507.5" y="950" width="125" height="40" as="geometry"/></mxCell><mxCell id="fpt21rZaqPMI40TDleuf-59" value="&amp;lt;demais operadores possiveis&amp;gt;" style="whiteSpace=wrap;html=1;rounded=1;shadow=1;strokeWidth=1;fontSize=16;align=center;fillColor=#f5f5f5;strokeColor=#666666;" parent="fpt21rZaqPMI40TDleuf-1" vertex="1"><mxGeometry x="365" y="680" width="265" height="40" as="geometry"/></mxCell><mxCell id="fpt21rZaqPMI40TDleuf-60" value="&amp;lt;demais operadores possiveis&amp;gt;" style="whiteSpace=wrap;html=1;rounded=1;shadow=1;strokeWidth=1;fontSize=16;align=center;fillColor=#f5f5f5;strokeColor=#666666;" parent="fpt21rZaqPMI40TDleuf-1" vertex="1"><mxGeometry x="371.25" y="1000" width="258.75" height="40" as="geometry"/></mxCell><mxCell id="fpt21rZaqPMI40TDleuf-61" value="ORDER BY" style="whiteSpace=wrap;html=1;rounded=1;shadow=1;strokeWidth=1;fontSize=16;align=center;fillColor=#f5f5f5;strokeColor=#666666;" parent="fpt21rZaqPMI40TDleuf-1" vertex="1"><mxGeometry x="107.5" y="1050" width="125" height="40" as="geometry"/></mxCell><mxCell id="fpt21rZaqPMI40TDleuf-62" value="&amp;lt;atributos&amp;gt;" style="whiteSpace=wrap;html=1;rounded=1;shadow=1;strokeWidth=1;fontSize=16;align=center;fillColor=#f5f5f5;strokeColor=#666666;" parent="fpt21rZaqPMI40TDleuf-1" vertex="1"><mxGeometry x="240" y="1050" width="125" height="40" as="geometry"/></mxCell></root></mxGraphModel></diagram><diagram id="H7tbq46ziS2yzMEBQgrO" name="View"><mxGraphModel dx="2113" dy="1257" grid="0" gridSize="5" guides="1" tooltips="1" connect="1" arrows="1" fold="1" page="0" pageScale="1" pageWidth="827" pageHeight="1169" math="0" shadow="0"><root><mxCell id="qYULxmAcrO-K-1smGcCk-0"/><mxCell id="qYULxmAcrO-K-1smGcCk-1" parent="qYULxmAcrO-K-1smGcCk-0"/><mxCell id="6KriA0YIbl5h3MBTgzVv-0" value="&lt;h1&gt;View em um Banco de Dados SQL&lt;/h1&gt;" style="text;html=1;fillColor=none;spacing=5;spacingTop=-20;whiteSpace=wrap;overflow=hidden;rounded=0;strokeColor=#000000;" parent="qYULxmAcrO-K-1smGcCk-1" vertex="1"><mxGeometry x="-40" y="200" width="1475" height="535" as="geometry"/></mxCell><mxCell id="xla7DVfD7_KC19IhaXi2-87" style="edgeStyle=none;rounded=0;orthogonalLoop=1;jettySize=auto;html=1;entryX=0;entryY=0.5;entryDx=0;entryDy=0;fontSize=16;" parent="qYULxmAcrO-K-1smGcCk-1" source="xla7DVfD7_KC19IhaXi2-0" target="xla7DVfD7_KC19IhaXi2-81" edge="1"><mxGeometry relative="1" as="geometry"/></mxCell><mxCell id="xla7DVfD7_KC19IhaXi2-0" value="&lt;h1 style=&quot;font-size: 16px;&quot;&gt;Estrutura de um Select&lt;/h1&gt;" style="text;html=1;fillColor=none;spacing=5;spacingTop=-20;whiteSpace=wrap;overflow=hidden;rounded=0;strokeColor=#000000;fontSize=16;" parent="qYULxmAcrO-K-1smGcCk-1" vertex="1"><mxGeometry x="380" y="330" width="360" height="340" as="geometry"/></mxCell><mxCell id="xla7DVfD7_KC19IhaXi2-61" style="edgeStyle=none;rounded=0;orthogonalLoop=1;jettySize=auto;html=1;entryX=0;entryY=0.25;entryDx=0;entryDy=0;fontSize=16;" parent="qYULxmAcrO-K-1smGcCk-1" source="6KriA0YIbl5h3MBTgzVv-2" target="xla7DVfD7_KC19IhaXi2-57" edge="1"><mxGeometry relative="1" as="geometry"/></mxCell><mxCell id="6KriA0YIbl5h3MBTgzVv-2" value="CREATE&lt;br&gt;OR&lt;br&gt;REPLACE" style="whiteSpace=wrap;html=1;rounded=1;shadow=1;strokeWidth=1;fontSize=16;align=center;fillColor=#f5f5f5;strokeColor=#666666;" parent="qYULxmAcrO-K-1smGcCk-1" vertex="1"><mxGeometry x="-10" y="380" width="130" height="80" as="geometry"/></mxCell><mxCell id="xla7DVfD7_KC19IhaXi2-63" style="edgeStyle=none;rounded=0;orthogonalLoop=1;jettySize=auto;html=1;fontSize=16;" parent="qYULxmAcrO-K-1smGcCk-1" source="6KriA0YIbl5h3MBTgzVv-4" target="xla7DVfD7_KC19IhaXi2-57" edge="1"><mxGeometry relative="1" as="geometry"/></mxCell><mxCell id="6KriA0YIbl5h3MBTgzVv-4" value="ALTER" style="whiteSpace=wrap;html=1;rounded=1;shadow=1;strokeWidth=1;fontSize=16;align=center;fillColor=#f5f5f5;strokeColor=#666666;" parent="qYULxmAcrO-K-1smGcCk-1" vertex="1"><mxGeometry x="-5" y="555" width="125" height="40" as="geometry"/></mxCell><mxCell id="xla7DVfD7_KC19IhaXi2-1" value="SELECT" style="whiteSpace=wrap;html=1;rounded=1;shadow=1;strokeWidth=1;fontSize=6;align=center;fillColor=#f5f5f5;strokeColor=#666666;" parent="qYULxmAcrO-K-1smGcCk-1" vertex="1"><mxGeometry x="390" y="360" width="60" height="20" as="geometry"/></mxCell><mxCell id="xla7DVfD7_KC19IhaXi2-2" value="FROM" style="whiteSpace=wrap;html=1;rounded=1;shadow=1;strokeWidth=1;fontSize=6;align=center;fillColor=#f5f5f5;strokeColor=#666666;" parent="qYULxmAcrO-K-1smGcCk-1" vertex="1"><mxGeometry x="527.5" y="360" width="60" height="20" as="geometry"/></mxCell><mxCell id="xla7DVfD7_KC19IhaXi2-3" value="INNER JOIN" style="whiteSpace=wrap;html=1;rounded=1;shadow=1;strokeWidth=1;fontSize=6;align=center;fillColor=#f5f5f5;strokeColor=#666666;" parent="qYULxmAcrO-K-1smGcCk-1" vertex="1"><mxGeometry x="527.5" y="390" width="60" height="20" as="geometry"/></mxCell><mxCell id="xla7DVfD7_KC19IhaXi2-4" value="WHERE" style="whiteSpace=wrap;html=1;rounded=1;shadow=1;strokeWidth=1;fontSize=6;align=center;fillColor=#f5f5f5;strokeColor=#666666;" parent="qYULxmAcrO-K-1smGcCk-1" vertex="1"><mxGeometry x="390" y="500" width="60" height="20" as="geometry"/></mxCell><mxCell id="xla7DVfD7_KC19IhaXi2-5" value="&amp;lt;atributos | * &amp;gt;" style="whiteSpace=wrap;html=1;rounded=1;shadow=1;strokeWidth=1;fontSize=6;align=center;fillColor=#f5f5f5;strokeColor=#666666;" parent="qYULxmAcrO-K-1smGcCk-1" vertex="1"><mxGeometry x="457.5" y="360" width="60" height="20" as="geometry"/></mxCell><mxCell id="xla7DVfD7_KC19IhaXi2-6" value="&amp;lt;nome tabela&amp;gt;" style="whiteSpace=wrap;html=1;rounded=1;shadow=1;strokeWidth=1;fontSize=6;align=center;fillColor=#f5f5f5;strokeColor=#666666;" parent="qYULxmAcrO-K-1smGcCk-1" vertex="1"><mxGeometry x="592.5" y="360" width="60" height="20" as="geometry"/></mxCell><mxCell id="xla7DVfD7_KC19IhaXi2-7" value="&amp;lt;nome tabela&amp;gt;" style="whiteSpace=wrap;html=1;rounded=1;shadow=1;strokeWidth=1;fontSize=6;align=center;fillColor=#f5f5f5;strokeColor=#666666;" parent="qYULxmAcrO-K-1smGcCk-1" vertex="1"><mxGeometry x="592.5" y="390" width="60" height="20" as="geometry"/></mxCell><mxCell id="xla7DVfD7_KC19IhaXi2-8" value="&amp;lt;criterio&amp;gt;" style="whiteSpace=wrap;html=1;rounded=1;shadow=1;strokeWidth=1;fontSize=6;align=center;fillColor=#f5f5f5;strokeColor=#666666;" parent="qYULxmAcrO-K-1smGcCk-1" vertex="1"><mxGeometry x="456.25" y="500" width="60" height="20" as="geometry"/></mxCell><mxCell id="xla7DVfD7_KC19IhaXi2-9" value="AND" style="whiteSpace=wrap;html=1;rounded=1;shadow=1;strokeWidth=1;fontSize=6;align=center;fillColor=#f5f5f5;strokeColor=#666666;" parent="qYULxmAcrO-K-1smGcCk-1" vertex="1"><mxGeometry x="517.5" y="500" width="60" height="20" as="geometry"/></mxCell><mxCell id="xla7DVfD7_KC19IhaXi2-10" value="&amp;lt;criterio&amp;gt;" style="whiteSpace=wrap;html=1;rounded=1;shadow=1;strokeWidth=1;fontSize=6;align=center;fillColor=#f5f5f5;strokeColor=#666666;" parent="qYULxmAcrO-K-1smGcCk-1" vertex="1"><mxGeometry x="587.5" y="500" width="60" height="20" as="geometry"/></mxCell><mxCell id="xla7DVfD7_KC19IhaXi2-11" value="OR" style="whiteSpace=wrap;html=1;rounded=1;shadow=1;strokeWidth=1;fontSize=6;align=center;fillColor=#f5f5f5;strokeColor=#666666;" parent="qYULxmAcrO-K-1smGcCk-1" vertex="1"><mxGeometry x="456.25" y="530" width="60" height="20" as="geometry"/></mxCell><mxCell id="xla7DVfD7_KC19IhaXi2-12" value="&amp;lt;criterio&amp;gt;" style="whiteSpace=wrap;html=1;rounded=1;shadow=1;strokeWidth=1;fontSize=6;align=center;fillColor=#f5f5f5;strokeColor=#666666;" parent="qYULxmAcrO-K-1smGcCk-1" vertex="1"><mxGeometry x="517.5" y="530" width="60" height="20" as="geometry"/></mxCell><mxCell id="xla7DVfD7_KC19IhaXi2-13" value="ON" style="whiteSpace=wrap;html=1;rounded=1;shadow=1;strokeWidth=1;fontSize=6;align=center;fillColor=#f5f5f5;strokeColor=#666666;" parent="qYULxmAcrO-K-1smGcCk-1" vertex="1"><mxGeometry x="592.5" y="415" width="60" height="20" as="geometry"/></mxCell><mxCell id="xla7DVfD7_KC19IhaXi2-14" value="&amp;lt;criterio&amp;gt;" style="whiteSpace=wrap;html=1;rounded=1;shadow=1;strokeWidth=1;fontSize=6;align=center;fillColor=#f5f5f5;strokeColor=#666666;" parent="qYULxmAcrO-K-1smGcCk-1" vertex="1"><mxGeometry x="658.75" y="415" width="60" height="20" as="geometry"/></mxCell><mxCell id="xla7DVfD7_KC19IhaXi2-15" value="&amp;lt;outros joins&amp;gt;" style="whiteSpace=wrap;html=1;rounded=1;shadow=1;strokeWidth=1;fontSize=6;align=center;fillColor=#f5f5f5;strokeColor=#666666;" parent="qYULxmAcrO-K-1smGcCk-1" vertex="1"><mxGeometry x="527.5" y="445" width="60" height="20" as="geometry"/></mxCell><mxCell id="xla7DVfD7_KC19IhaXi2-16" value="&amp;lt;nome tabela&amp;gt;" style="whiteSpace=wrap;html=1;rounded=1;shadow=1;strokeWidth=1;fontSize=6;align=center;fillColor=#f5f5f5;strokeColor=#666666;" parent="qYULxmAcrO-K-1smGcCk-1" vertex="1"><mxGeometry x="592.5" y="445" width="60" height="20" as="geometry"/></mxCell><mxCell id="xla7DVfD7_KC19IhaXi2-17" value="ON" style="whiteSpace=wrap;html=1;rounded=1;shadow=1;strokeWidth=1;fontSize=6;align=center;fillColor=#f5f5f5;strokeColor=#666666;" parent="qYULxmAcrO-K-1smGcCk-1" vertex="1"><mxGeometry x="592.5" y="470" width="60" height="20" as="geometry"/></mxCell><mxCell id="xla7DVfD7_KC19IhaXi2-18" value="&amp;lt;criterio&amp;gt;" style="whiteSpace=wrap;html=1;rounded=1;shadow=1;strokeWidth=1;fontSize=6;align=center;fillColor=#f5f5f5;strokeColor=#666666;" parent="qYULxmAcrO-K-1smGcCk-1" vertex="1"><mxGeometry x="658.75" y="470" width="60" height="20" as="geometry"/></mxCell><mxCell id="xla7DVfD7_KC19IhaXi2-19" value="BETWEEN" style="whiteSpace=wrap;html=1;rounded=1;shadow=1;strokeWidth=1;fontSize=6;align=center;fillColor=#f5f5f5;strokeColor=#666666;" parent="qYULxmAcrO-K-1smGcCk-1" vertex="1"><mxGeometry x="456.25" y="555" width="60" height="20" as="geometry"/></mxCell><mxCell id="xla7DVfD7_KC19IhaXi2-20" value="&amp;lt;criterio&amp;gt;" style="whiteSpace=wrap;html=1;rounded=1;shadow=1;strokeWidth=1;fontSize=6;align=center;fillColor=#f5f5f5;strokeColor=#666666;" parent="qYULxmAcrO-K-1smGcCk-1" vertex="1"><mxGeometry x="517.5" y="555" width="60" height="20" as="geometry"/></mxCell><mxCell id="xla7DVfD7_KC19IhaXi2-21" value="AND" style="whiteSpace=wrap;html=1;rounded=1;shadow=1;strokeWidth=1;fontSize=6;align=center;fillColor=#f5f5f5;strokeColor=#666666;" parent="qYULxmAcrO-K-1smGcCk-1" vertex="1"><mxGeometry x="587.5" y="555" width="60" height="20" as="geometry"/></mxCell><mxCell id="xla7DVfD7_KC19IhaXi2-22" value="&amp;lt;criterio&amp;gt;" style="whiteSpace=wrap;html=1;rounded=1;shadow=1;strokeWidth=1;fontSize=6;align=center;fillColor=#f5f5f5;strokeColor=#666666;" parent="qYULxmAcrO-K-1smGcCk-1" vertex="1"><mxGeometry x="653.75" y="555" width="60" height="20" as="geometry"/></mxCell><mxCell id="xla7DVfD7_KC19IhaXi2-23" value="LIKE" style="whiteSpace=wrap;html=1;rounded=1;shadow=1;strokeWidth=1;fontSize=6;align=center;fillColor=#f5f5f5;strokeColor=#666666;" parent="qYULxmAcrO-K-1smGcCk-1" vertex="1"><mxGeometry x="457.5" y="585" width="60" height="20" as="geometry"/></mxCell><mxCell id="xla7DVfD7_KC19IhaXi2-24" value="&amp;lt;criterio&amp;gt;" style="whiteSpace=wrap;html=1;rounded=1;shadow=1;strokeWidth=1;fontSize=6;align=center;fillColor=#f5f5f5;strokeColor=#666666;" parent="qYULxmAcrO-K-1smGcCk-1" vertex="1"><mxGeometry x="517.5" y="585" width="60" height="20" as="geometry"/></mxCell><mxCell id="xla7DVfD7_KC19IhaXi2-39" value="&amp;lt;demais operadores possiveis&amp;gt;" style="whiteSpace=wrap;html=1;rounded=1;shadow=1;strokeWidth=1;fontSize=6;align=center;fillColor=#f5f5f5;strokeColor=#666666;" parent="qYULxmAcrO-K-1smGcCk-1" vertex="1"><mxGeometry x="457.5" y="610" width="60" height="20" as="geometry"/></mxCell><mxCell id="xla7DVfD7_KC19IhaXi2-45" value="&amp;lt;restante do sql&amp;gt;" style="whiteSpace=wrap;html=1;rounded=1;shadow=1;strokeWidth=1;fontSize=6;align=center;fillColor=#f5f5f5;strokeColor=#666666;" parent="qYULxmAcrO-K-1smGcCk-1" vertex="1"><mxGeometry x="390" y="640" width="60" height="20" as="geometry"/></mxCell><mxCell id="xla7DVfD7_KC19IhaXi2-65" style="edgeStyle=none;rounded=0;orthogonalLoop=1;jettySize=auto;html=1;entryX=0;entryY=0.5;entryDx=0;entryDy=0;fontSize=16;" parent="qYULxmAcrO-K-1smGcCk-1" source="xla7DVfD7_KC19IhaXi2-57" target="xla7DVfD7_KC19IhaXi2-0" edge="1"><mxGeometry relative="1" as="geometry"/></mxCell><mxCell id="xla7DVfD7_KC19IhaXi2-57" value="UTILIZA UM&lt;br&gt;SQL&lt;br&gt;COMO BASE&lt;br&gt;DA VIEW" style="whiteSpace=wrap;html=1;rounded=1;shadow=1;strokeWidth=1;fontSize=16;align=center;fillColor=#f5f5f5;strokeColor=#666666;" parent="qYULxmAcrO-K-1smGcCk-1" vertex="1"><mxGeometry x="205" y="440" width="125" height="110" as="geometry"/></mxCell><mxCell id="xla7DVfD7_KC19IhaXi2-74" value="View A" style="shape=table;startSize=30;container=1;collapsible=1;childLayout=tableLayout;fixedRows=1;rowLines=0;fontStyle=1;align=center;resizeLast=1;fontSize=16;" parent="qYULxmAcrO-K-1smGcCk-1" vertex="1"><mxGeometry x="865" y="420" width="180" height="130" as="geometry"/></mxCell><mxCell id="xla7DVfD7_KC19IhaXi2-78" value="" style="shape=partialRectangle;collapsible=0;dropTarget=0;pointerEvents=0;fillColor=none;top=0;left=0;bottom=0;right=0;points=[[0,0.5],[1,0.5]];portConstraint=eastwest;" parent="xla7DVfD7_KC19IhaXi2-74" vertex="1"><mxGeometry y="30" width="180" height="30" as="geometry"/></mxCell><mxCell id="xla7DVfD7_KC19IhaXi2-79" value="" style="shape=partialRectangle;connectable=0;fillColor=none;top=0;left=0;bottom=0;right=0;editable=1;overflow=hidden;" parent="xla7DVfD7_KC19IhaXi2-78" vertex="1"><mxGeometry width="30" height="30" as="geometry"/></mxCell><mxCell id="xla7DVfD7_KC19IhaXi2-80" value="campoA &lt;tipo herdado&gt;" style="shape=partialRectangle;connectable=0;fillColor=none;top=0;left=0;bottom=0;right=0;align=left;spacingLeft=6;overflow=hidden;" parent="xla7DVfD7_KC19IhaXi2-78" vertex="1"><mxGeometry x="30" width="150" height="30" as="geometry"/></mxCell><mxCell id="xla7DVfD7_KC19IhaXi2-81" value="" style="shape=partialRectangle;collapsible=0;dropTarget=0;pointerEvents=0;fillColor=none;top=0;left=0;bottom=0;right=0;points=[[0,0.5],[1,0.5]];portConstraint=eastwest;" parent="xla7DVfD7_KC19IhaXi2-74" vertex="1"><mxGeometry y="60" width="180" height="30" as="geometry"/></mxCell><mxCell id="xla7DVfD7_KC19IhaXi2-82" value="" style="shape=partialRectangle;connectable=0;fillColor=none;top=0;left=0;bottom=0;right=0;editable=1;overflow=hidden;" parent="xla7DVfD7_KC19IhaXi2-81" vertex="1"><mxGeometry width="30" height="30" as="geometry"/></mxCell><mxCell id="xla7DVfD7_KC19IhaXi2-83" value="campoB &lt;tipo herdado&gt;" style="shape=partialRectangle;connectable=0;fillColor=none;top=0;left=0;bottom=0;right=0;align=left;spacingLeft=6;overflow=hidden;" parent="xla7DVfD7_KC19IhaXi2-81" vertex="1"><mxGeometry x="30" width="150" height="30" as="geometry"/></mxCell><mxCell id="xla7DVfD7_KC19IhaXi2-84" value="" style="shape=partialRectangle;collapsible=0;dropTarget=0;pointerEvents=0;fillColor=none;top=0;left=0;bottom=0;right=0;points=[[0,0.5],[1,0.5]];portConstraint=eastwest;" parent="xla7DVfD7_KC19IhaXi2-74" vertex="1"><mxGeometry y="90" width="180" height="30" as="geometry"/></mxCell><mxCell id="xla7DVfD7_KC19IhaXi2-85" value="" style="shape=partialRectangle;connectable=0;fillColor=none;top=0;left=0;bottom=0;right=0;editable=1;overflow=hidden;" parent="xla7DVfD7_KC19IhaXi2-84" vertex="1"><mxGeometry width="30" height="30" as="geometry"/></mxCell><mxCell id="xla7DVfD7_KC19IhaXi2-86" value="campoC &lt;tipo herdado&gt;" style="shape=partialRectangle;connectable=0;fillColor=none;top=0;left=0;bottom=0;right=0;align=left;spacingLeft=6;overflow=hidden;" parent="xla7DVfD7_KC19IhaXi2-84" vertex="1"><mxGeometry x="30" width="150" height="30" as="geometry"/></mxCell><mxCell id="xla7DVfD7_KC19IhaXi2-89" style="edgeStyle=none;rounded=0;orthogonalLoop=1;jettySize=auto;html=1;fontSize=16;" parent="qYULxmAcrO-K-1smGcCk-1" source="xla7DVfD7_KC19IhaXi2-88" edge="1"><mxGeometry relative="1" as="geometry"><mxPoint x="962.5" y="555" as="targetPoint"/></mxGeometry></mxCell><mxCell id="xla7DVfD7_KC19IhaXi2-88" value="SELECT" style="whiteSpace=wrap;html=1;rounded=1;shadow=1;strokeWidth=1;fontSize=16;align=center;fillColor=#f5f5f5;strokeColor=#666666;" parent="qYULxmAcrO-K-1smGcCk-1" vertex="1"><mxGeometry x="900" y="635" width="125" height="40" as="geometry"/></mxCell><mxCell id="xla7DVfD7_KC19IhaXi2-91" style="edgeStyle=none;rounded=0;orthogonalLoop=1;jettySize=auto;html=1;entryX=0.5;entryY=0;entryDx=0;entryDy=0;fontSize=16;" parent="qYULxmAcrO-K-1smGcCk-1" source="xla7DVfD7_KC19IhaXi2-90" target="xla7DVfD7_KC19IhaXi2-74" edge="1"><mxGeometry relative="1" as="geometry"/></mxCell><mxCell id="xla7DVfD7_KC19IhaXi2-90" value="DROP" style="whiteSpace=wrap;html=1;rounded=1;shadow=1;strokeWidth=1;fontSize=16;align=center;fillColor=#f5f5f5;strokeColor=#666666;" parent="qYULxmAcrO-K-1smGcCk-1" vertex="1"><mxGeometry x="892.5" y="250" width="125" height="40" as="geometry"/></mxCell><mxCell id="xla7DVfD7_KC19IhaXi2-92" value="INSERT" style="whiteSpace=wrap;html=1;rounded=1;shadow=1;strokeWidth=1;fontSize=16;align=center;fillColor=#f5f5f5;strokeColor=#666666;" parent="qYULxmAcrO-K-1smGcCk-1" vertex="1"><mxGeometry x="1265" y="400" width="125" height="40" as="geometry"/></mxCell><mxCell id="xla7DVfD7_KC19IhaXi2-96" style="edgeStyle=none;rounded=0;orthogonalLoop=1;jettySize=auto;html=1;entryX=1;entryY=0.5;entryDx=0;entryDy=0;fontSize=16;" parent="qYULxmAcrO-K-1smGcCk-1" source="xla7DVfD7_KC19IhaXi2-101" target="xla7DVfD7_KC19IhaXi2-81" edge="1"><mxGeometry relative="1" as="geometry"/></mxCell><mxCell id="xla7DVfD7_KC19IhaXi2-93" value="UPDATE" style="whiteSpace=wrap;html=1;rounded=1;shadow=1;strokeWidth=1;fontSize=16;align=center;fillColor=#f5f5f5;strokeColor=#666666;" parent="qYULxmAcrO-K-1smGcCk-1" vertex="1"><mxGeometry x="1260" y="465" width="125" height="40" as="geometry"/></mxCell><mxCell id="xla7DVfD7_KC19IhaXi2-94" value="DELETE" style="whiteSpace=wrap;html=1;rounded=1;shadow=1;strokeWidth=1;fontSize=16;align=center;fillColor=#f5f5f5;strokeColor=#666666;" parent="qYULxmAcrO-K-1smGcCk-1" vertex="1"><mxGeometry x="1260" y="520" width="125" height="40" as="geometry"/></mxCell><mxCell id="xla7DVfD7_KC19IhaXi2-100" style="edgeStyle=none;rounded=0;orthogonalLoop=1;jettySize=auto;html=1;entryX=0.7;entryY=0.04;entryDx=0;entryDy=0;fontSize=16;entryPerimeter=0;" parent="qYULxmAcrO-K-1smGcCk-1" source="xla7DVfD7_KC19IhaXi2-92" target="xla7DVfD7_KC19IhaXi2-101" edge="1"><mxGeometry relative="1" as="geometry"><mxPoint x="1260" y="406.8918918918919" as="sourcePoint"/><mxPoint x="1180" y="435" as="targetPoint"/></mxGeometry></mxCell><mxCell id="xla7DVfD7_KC19IhaXi2-101" value="" style="aspect=fixed;pointerEvents=1;shadow=0;dashed=0;html=1;strokeColor=none;labelPosition=center;verticalLabelPosition=bottom;verticalAlign=top;align=center;shape=mxgraph.mscae.enterprise.not_allowed;fillColor=#EA1C24;fontSize=16;" parent="qYULxmAcrO-K-1smGcCk-1" vertex="1"><mxGeometry x="1130" y="465" width="50" height="50" as="geometry"/></mxCell><mxCell id="xla7DVfD7_KC19IhaXi2-102" style="edgeStyle=none;rounded=0;orthogonalLoop=1;jettySize=auto;html=1;entryX=1;entryY=0.5;entryDx=0;entryDy=0;fontSize=16;" parent="qYULxmAcrO-K-1smGcCk-1" source="xla7DVfD7_KC19IhaXi2-93" target="xla7DVfD7_KC19IhaXi2-101" edge="1"><mxGeometry relative="1" as="geometry"><mxPoint x="1260" y="487.2522522522522" as="sourcePoint"/><mxPoint x="1045" y="495" as="targetPoint"/></mxGeometry></mxCell><mxCell id="xla7DVfD7_KC19IhaXi2-104" style="edgeStyle=none;rounded=0;orthogonalLoop=1;jettySize=auto;html=1;entryX=0.855;entryY=0.855;entryDx=0;entryDy=0;fontSize=16;entryPerimeter=0;" parent="qYULxmAcrO-K-1smGcCk-1" source="xla7DVfD7_KC19IhaXi2-94" target="xla7DVfD7_KC19IhaXi2-101" edge="1"><mxGeometry relative="1" as="geometry"><mxPoint x="1260" y="552.1171171171172" as="sourcePoint"/><mxPoint x="1180" y="540" as="targetPoint"/></mxGeometry></mxCell></root></mxGraphModel></diagram></mxfile>